<?xml version="1.0" encoding="utf-8"?>
<!-- Generator: Adobe Illustrator 23.1.1, SVG Export Plug-In . SVG Version: 6.00 Build 0)  -->
<svg version="1.1" id="Layer_1" xmlns:glycanjs="https://glycocode.com/glycanjs"
	 xmlns="http://www.w3.org/2000/svg" xmlns:xlink="http://www.w3.org/1999/xlink" x="0px" y="0px" width="2478.3px"
	 height="1157.9px" viewBox="0 0 2478.3 1157.9" enable-background="new 0 0 2478.3 1157.9" xml:space="preserve">
<symbol  id="fuc" viewBox="-0.5 -0.5 1 1">
	<rect x="-0.5" y="-0.5" fill="#FFFFFF" fill-opacity="0" width="1" height="1"/>
	<path fill="#ED1C24" stroke="#000000" stroke-width="1.000000e-04" stroke-miterlimit="10" d="M0-0.3l0.4,0.8h-0.8L0-0.3z"/>
</symbol>
<symbol  id="gal" viewBox="-0.5 -0.5 1 1">
	<rect x="-0.5" y="-0.5" fill="#FFFFFF" fill-opacity="0" width="1" height="1"/>
	<circle fill="#FFD400" stroke="#000000" stroke-width="1.000000e-04" stroke-miterlimit="10" cx="0" cy="0" r="0.4"/>
</symbol>
<symbol  id="galnac" viewBox="-0.5 -0.5 1 1">
	<rect x="-0.5" y="-0.5" fill="#FFFFFF" fill-opacity="0" width="1" height="1"/>
	
		<rect x="-0.4" y="-0.4" fill="#FFD400" stroke="#000000" stroke-width="1.000000e-04" stroke-miterlimit="10" width="0.8" height="0.8"/>
</symbol>
<symbol  id="glca" viewBox="-0.5 -0.5 1 1">
	<rect x="-0.5" y="-0.5" fill="#FFFFFF" fill-opacity="0" width="1" height="1"/>
	<polyline fill="#0090BC" stroke="#000000" stroke-width="1.000000e-04" stroke-miterlimit="10" points="0,-0.4 0.4,0 -0.4,0 
		0,-0.4 	"/>
	<polyline fill="#FFFFFF" stroke="#000000" stroke-width="1.000000e-04" stroke-miterlimit="10" points="0,0.4 0.4,0 -0.4,0 0,0.4 	
		"/>
</symbol>
<symbol  id="glcnac" viewBox="-0.5 -0.5 1 1">
	<rect x="-0.5" y="-0.5" fill="#FFFFFF" fill-opacity="0" width="1" height="1"/>
	
		<rect x="-0.4" y="-0.4" fill="#0090BC" stroke="#000000" stroke-width="1.000000e-04" stroke-miterlimit="10" width="0.8" height="0.8"/>
</symbol>
<symbol  id="man" viewBox="-0.5 -0.5 1 1">
	<rect x="-0.5" y="-0.5" fill="#FFFFFF" fill-opacity="0" width="1" height="1"/>
	<circle fill="#00A651" stroke="#000000" stroke-width="1.000000e-04" stroke-miterlimit="10" cx="0" cy="0" r="0.4"/>
</symbol>
<symbol  id="neuac" viewBox="-0.5 -0.5 1 0.9">
	<rect x="-0.5" y="-0.5" fill="#FFFFFF" fill-opacity="0" width="0.9" height="0.9"/>
	
		<rect x="-0.3" y="-0.3" transform="matrix(0.7071 -0.7071 0.7071 0.7071 1.356649e-03 3.210475e-02)" fill="#A54399" stroke="#000000" stroke-width="9.090733e-05" stroke-miterlimit="9.0907" width="0.6" height="0.6"/>
</symbol>
<symbol  id="xyl" viewBox="-0.5 -0.5 1 1">
	<rect x="-0.5" y="-0.5" fill="#FFFFFF" fill-opacity="0" width="1" height="1"/>
	
		<polyline fill="#F47920" stroke="#000000" stroke-width="1.000000e-04" stroke-linecap="round" stroke-linejoin="round" stroke-miterlimit="10" points="
		0.2,0.1 0.3,0.4 0,0.2 -0.3,0.4 -0.2,0.1 -0.5,-0.1 -0.1,-0.1 0,-0.4 0.1,-0.1 0.5,-0.1 0.2,0.1 	"/>
</symbol>
<g pointer-events="none" glycanjs:sequence="GlcNAc(a1-4)GlcA(b1-4)GlcNAc(a1-4)GlcA(b1-3)Gal(b1-3)Gal(b1-4)Xyl(b1-O)Ser" xmlns:glycanjs="https://glycocode.com/glycanjs">
	<g glycanjs:location="y8a">
		<line fill="none" stroke="#333333" stroke-linecap="round" x1="2108.4" y1="140" x2="2108.4" y2="265"/>
	</g>
	<g glycanjs:location="y7a">
		<line fill="none" stroke="#333333" stroke-linecap="round" x1="2108.4" y1="265" x2="2108.4" y2="390"/>
	</g>
	<g glycanjs:location="y6a">
		<line fill="none" stroke="#333333" stroke-linecap="round" x1="2108.4" y1="390" x2="2108.4" y2="515"/>
	</g>
	<g glycanjs:location="y5a">
		<line fill="none" stroke="#333333" stroke-linecap="round" x1="2108.4" y1="515" x2="2233.4" y2="640"/>
	</g>
	<g glycanjs:location="y4a">
		<line fill="none" stroke="#333333" stroke-linecap="round" x1="2233.4" y1="640" x2="2358.4" y2="765"/>
	</g>
	<g glycanjs:location="y3a">
		<line fill="none" stroke="#333333" stroke-linecap="round" x1="2358.4" y1="765" x2="2358.4" y2="890"/>
	</g>
			
				<use xlink:href="#xyl"  width="1" height="1" x="-0.5" y="-0.5" glycanjs:identifier="Xyl" glycanjs:location="y2a" glycanjs:parent="y1a" transform="matrix(100 0 0 100 2358.417 890)" overflow="visible"/>
			
				<use xlink:href="#gal"  width="1" height="1" x="-0.5" y="-0.5" glycanjs:identifier="Gal" glycanjs:location="y3a" glycanjs:parent="y2a" transform="matrix(100 0 0 100 2358.417 765)" overflow="visible"/>
			
				<use xlink:href="#gal"  width="1" height="1" x="-0.5" y="-0.5" glycanjs:identifier="Gal" glycanjs:location="y4a" glycanjs:parent="y3a" transform="matrix(100 0 0 100 2233.417 640)" overflow="visible"/>
			
				<use xlink:href="#glca"  width="1" height="1" x="-0.5" y="-0.5" glycanjs:identifier="GlcA" glycanjs:location="y5a" glycanjs:parent="y4a" transform="matrix(100 0 0 100 2108.417 515)" overflow="visible"/>
			
				<use xlink:href="#glcnac"  width="1" height="1" x="-0.5" y="-0.5" glycanjs:identifier="GlcNAc" glycanjs:location="y6a" glycanjs:parent="y5a" transform="matrix(100 0 0 100 2108.417 390)" overflow="visible"/>
			
				<use xlink:href="#glca"  width="1" height="1" x="-0.5" y="-0.5" glycanjs:identifier="GlcA" glycanjs:location="y7a" glycanjs:parent="y6a" transform="matrix(100 0 0 100 2108.417 265)" overflow="visible"/>
			
				<use xlink:href="#glcnac"  width="1" height="1" x="-0.5" y="-0.5" glycanjs:identifier="GlcNAc" glycanjs:location="y8a" glycanjs:parent="y7a" transform="matrix(100 0 0 100 2108.417 140)" overflow="visible"/>
</g>
<g pointer-events="none" glycanjs:sequence="NeuAc(a2-3)Gal(b1-4)GlcNAc(b1-2)[NeuAc(a2-3)Gal(b1-4)GlcNAc(b1-4)]Man(a1-3)[GlcNAc(b1-4)][NeuAc(a2-6)Gal(b1-4)GlcNAc(b1-2)[GalNAc(b1-4)GlcNAc(b1-6)]Man(a1-6)]Man(b1-4)GlcNAc(b1-4)[Fuc(a1-6)]GlcNAc(b1-N)Asn" xmlns:glycanjs="https://glycocode.com/glycanjs">
	<g glycanjs:location="y3b">
		<line fill="none" stroke="#333333" stroke-linecap="round" x1="731.7" y1="914.2" x2="606.7" y2="914.2"/>
	</g>
	<g glycanjs:location="y7d">
		<line fill="none" stroke="#333333" stroke-linecap="round" x1="794.2" y1="351.7" x2="794.2" y2="464.2"/>
	</g>
	<g glycanjs:location="y6d">
		<line fill="none" stroke="#333333" stroke-linecap="round" x1="794.2" y1="464.2" x2="731.7" y2="576.7"/>
	</g>
	<g glycanjs:location="y8c">
		<line fill="none" stroke="#333333" stroke-linecap="round" x1="669.2" y1="239.2" x2="669.2" y2="351.7"/>
	</g>
	<g glycanjs:location="y7c">
		<line fill="none" stroke="#333333" stroke-linecap="round" x1="669.2" y1="351.7" x2="669.2" y2="464.2"/>
	</g>
	<g glycanjs:location="y6c">
		<line fill="none" stroke="#333333" stroke-linecap="round" x1="669.2" y1="464.2" x2="731.7" y2="576.7"/>
	</g>
	<g glycanjs:location="y5c">
		<line fill="none" stroke="#333333" stroke-linecap="round" x1="731.7" y1="576.7" x2="606.7" y2="689.2"/>
	</g>
	<g glycanjs:location="y5b">
		<line fill="none" stroke="#333333" stroke-linecap="round" x1="606.7" y1="576.7" x2="606.7" y2="689.2"/>
	</g>
	<g glycanjs:location="y8b">
		<line fill="none" stroke="#333333" stroke-linecap="round" x1="544.2" y1="239.2" x2="544.2" y2="351.7"/>
	</g>
	<g glycanjs:location="y7b">
		<line fill="none" stroke="#333333" stroke-linecap="round" x1="544.2" y1="351.7" x2="544.2" y2="464.2"/>
	</g>
	<g glycanjs:location="y6b">
		<line fill="none" stroke="#333333" stroke-linecap="round" x1="544.2" y1="464.2" x2="481.7" y2="576.7"/>
	</g>
	<g glycanjs:location="y8a">
		<line fill="none" stroke="#333333" stroke-linecap="round" x1="419.2" y1="239.2" x2="419.2" y2="351.7"/>
	</g>
	<g glycanjs:location="y7a">
		<line fill="none" stroke="#333333" stroke-linecap="round" x1="419.2" y1="351.7" x2="419.2" y2="464.2"/>
	</g>
	<g glycanjs:location="y6a">
		<line fill="none" stroke="#333333" stroke-linecap="round" x1="419.2" y1="464.2" x2="481.7" y2="576.7"/>
	</g>
	<g glycanjs:location="y5a">
		<line fill="none" stroke="#333333" stroke-linecap="round" x1="481.7" y1="576.7" x2="606.7" y2="689.2"/>
	</g>
	<g glycanjs:location="y4a">
		<line fill="none" stroke="#333333" stroke-linecap="round" x1="606.7" y1="689.2" x2="606.7" y2="801.7"/>
	</g>
	<g glycanjs:location="y3a">
		<line fill="none" stroke="#333333" stroke-linecap="round" x1="606.7" y1="801.7" x2="606.7" y2="914.2"/>
	</g>
	
		<use xlink:href="#glcnac"  width="1" height="1" x="-0.5" y="-0.5" glycanjs:identifier="GlcNAc" glycanjs:location="y2a" glycanjs:parent="y1a" transform="matrix(100 0 0 100 606.65 914.1773)" overflow="visible"/>
	
		<use xlink:href="#glcnac"  width="1" height="1" x="-0.5" y="-0.5" glycanjs:identifier="GlcNAc" glycanjs:location="y3a" glycanjs:parent="y2a" transform="matrix(100 0 0 100 606.65 801.6773)" overflow="visible"/>
	
		<use xlink:href="#man"  width="1" height="1" x="-0.5" y="-0.5" glycanjs:identifier="Man" glycanjs:location="y4a" glycanjs:parent="y3a" transform="matrix(100 0 0 100 606.65 689.1773)" overflow="visible"/>
	
		<use xlink:href="#man"  width="1" height="1" x="-0.5" y="-0.5" glycanjs:identifier="Man" glycanjs:location="y5a" glycanjs:parent="y4a" transform="matrix(100 0 0 100 481.65 576.6773)" overflow="visible"/>
	
		<use xlink:href="#glcnac"  width="1" height="1" x="-0.5" y="-0.5" glycanjs:identifier="GlcNAc" glycanjs:location="y6a" glycanjs:parent="y5a" transform="matrix(100 0 0 100 419.15 464.1773)" overflow="visible"/>
	
		<use xlink:href="#gal"  width="1" height="1" x="-0.5" y="-0.5" glycanjs:identifier="Gal" glycanjs:location="y7a" glycanjs:parent="y6a" transform="matrix(100 0 0 100 419.15 351.6773)" overflow="visible"/>
	
		<use xlink:href="#neuac"  width="1" height="0.9" x="-0.5" y="-0.5" glycanjs:identifier="NeuAc" glycanjs:location="y8a" glycanjs:parent="y7a" transform="matrix(100 0 0 100 418.097 240.1679)" overflow="visible"/>
	
		<use xlink:href="#glcnac"  width="1" height="1" x="-0.5" y="-0.5" glycanjs:identifier="GlcNAc" glycanjs:location="y6b" glycanjs:parent="y5a" transform="matrix(100 0 0 100 544.15 464.1773)" overflow="visible"/>
	
		<use xlink:href="#gal"  width="1" height="1" x="-0.5" y="-0.5" glycanjs:identifier="Gal" glycanjs:location="y7b" glycanjs:parent="y6b" transform="matrix(100 0 0 100 544.15 351.6773)" overflow="visible"/>
	
		<use xlink:href="#neuac"  width="1" height="0.9" x="-0.5" y="-0.5" glycanjs:identifier="NeuAc" glycanjs:location="y8b" glycanjs:parent="y7b" transform="matrix(100 0 0 100 543.0969 240.1679)" overflow="visible"/>
	
		<use xlink:href="#glcnac"  width="1" height="1" x="-0.5" y="-0.5" glycanjs:identifier="GlcNAc" glycanjs:location="y5b" glycanjs:parent="y4a" transform="matrix(100 0 0 100 606.65 576.6773)" overflow="visible"/>
	
		<use xlink:href="#man"  width="1" height="1" x="-0.5" y="-0.5" glycanjs:identifier="Man" glycanjs:location="y5c" glycanjs:parent="y4a" transform="matrix(100 0 0 100 731.65 576.6773)" overflow="visible"/>
	
		<use xlink:href="#glcnac"  width="1" height="1" x="-0.5" y="-0.5" glycanjs:identifier="GlcNAc" glycanjs:location="y6c" glycanjs:parent="y5c" transform="matrix(100 0 0 100 669.15 464.1773)" overflow="visible"/>
	
		<use xlink:href="#gal"  width="1" height="1" x="-0.5" y="-0.5" glycanjs:identifier="Gal" glycanjs:location="y7c" glycanjs:parent="y6c" transform="matrix(100 0 0 100 669.15 351.6773)" overflow="visible"/>
	
		<use xlink:href="#neuac"  width="1" height="0.9" x="-0.5" y="-0.5" glycanjs:identifier="NeuAc" glycanjs:location="y8c" glycanjs:parent="y7c" transform="matrix(100 0 0 100 668.0969 240.1679)" overflow="visible"/>
	
		<use xlink:href="#glcnac"  width="1" height="1" x="-0.5" y="-0.5" glycanjs:identifier="GlcNAc" glycanjs:location="y6d" glycanjs:parent="y5c" transform="matrix(100 0 0 100 794.15 464.1773)" overflow="visible"/>
	
		<use xlink:href="#galnac"  width="1" height="1" x="-0.5" y="-0.5" glycanjs:identifier="GalNAc" glycanjs:location="y7d" glycanjs:parent="y6d" transform="matrix(100 0 0 100 794.15 351.6773)" overflow="visible"/>
			
		<use xlink:href="#fuc"  width="1" height="1" x="-0.5" y="-0.5" glycanjs:identifier="Fuc" glycanjs:location="y3b" glycanjs:parent="y2a" transform="matrix(6.123234e-15 -100 100 6.123234e-15 731.6525 914.1773)" overflow="visible"/>
</g>
<g pointer-events="none" glycanjs:sequence="NeuAc(a2-6)Gal(b1-3)[NeuAc(a2-3)Gal(b1-4)[NeuAc(a2-3)Gal(b1-4)GlcNAc(b1-6)]GlcNAc(b1-3)Gal(b1-4)GlcNAc(b1-6)]GalNAc(a1-O)Ser" xmlns:glycanjs="https://glycocode.com/glycanjs">
	<g glycanjs:location="y8a">
		<line fill="none" stroke="#333333" stroke-linecap="round" x1="1341.3" y1="152.5" x2="1466.3" y2="277.5"/>
	</g>
	<g glycanjs:location="y7b">
		<line fill="none" stroke="#333333" stroke-linecap="round" x1="1466.3" y1="277.5" x2="1466.3" y2="402.5"/>
	</g>
	<g glycanjs:location="y6b">
		<line fill="none" stroke="#333333" stroke-linecap="round" x1="1466.3" y1="402.5" x2="1341.3" y2="527.5"/>
	</g>
	<g glycanjs:location="y7a">
		<line fill="none" stroke="#333333" stroke-linecap="round" x1="1216.3" y1="277.5" x2="1341.3" y2="402.5"/>
	</g>
	<g glycanjs:location="y6a">
		<line fill="none" stroke="#333333" stroke-linecap="round" x1="1341.3" y1="402.5" x2="1341.3" y2="527.5"/>
	</g>
	<g glycanjs:location="y5a">
		<line fill="none" stroke="#333333" stroke-linecap="round" x1="1341.3" y1="527.5" x2="1341.3" y2="640"/>
	</g>
	<g glycanjs:location="y4b">
		<line fill="none" stroke="#333333" stroke-linecap="round" x1="1341.3" y1="640" x2="1341.3" y2="765"/>
	</g>
	<g glycanjs:location="y3b">
		<line fill="none" stroke="#333333" stroke-linecap="round" x1="1341.3" y1="765" x2="1216.3" y2="890"/>
	</g>
	<g glycanjs:location="y4a">
		<line fill="none" stroke="#333333" stroke-linecap="round" x1="1216.3" y1="640" x2="1091.3" y2="765"/>
	</g>
	<g glycanjs:location="y3a">
		<line fill="none" stroke="#333333" stroke-linecap="round" x1="1091.3" y1="765" x2="1216.3" y2="890"/>
	</g>
			
				<use xlink:href="#galnac"  width="1" height="1" x="-0.5" y="-0.5" glycanjs:identifier="GalNAc" glycanjs:location="y2a" glycanjs:parent="y1a" transform="matrix(100 0 0 100 1216.3214 890)" overflow="visible"/>
			
				<use xlink:href="#gal"  width="1" height="1" x="-0.5" y="-0.5" glycanjs:identifier="Gal" glycanjs:location="y3a" glycanjs:parent="y2a" transform="matrix(100 0 0 100 1091.3214 765)" overflow="visible"/>
			
				<use xlink:href="#neuac"  width="1" height="0.9" x="-0.5" y="-0.5" glycanjs:identifier="NeuAc" glycanjs:location="y4a" glycanjs:parent="y3a" transform="matrix(100 0 0 100 1218.5558 640.9906)" overflow="visible"/>
			
				<use xlink:href="#glcnac"  width="1" height="1" x="-0.5" y="-0.5" glycanjs:identifier="GlcNAc" glycanjs:location="y3b" glycanjs:parent="y2a" transform="matrix(100 0 0 100 1341.3214 765)" overflow="visible"/>
			
				<use xlink:href="#gal"  width="1" height="1" x="-0.5" y="-0.5" glycanjs:identifier="Gal" glycanjs:location="y4b" glycanjs:parent="y3b" transform="matrix(100 0 0 100 1341.3214 640)" overflow="visible"/>
			
				<use xlink:href="#glcnac"  width="1" height="1" x="-0.5" y="-0.5" glycanjs:identifier="GlcNAc" glycanjs:location="y5a" glycanjs:parent="y4b" transform="matrix(100 0 0 100 1341.3214 527.5)" overflow="visible"/>
			
				<use xlink:href="#gal"  width="1" height="1" x="-0.5" y="-0.5" glycanjs:identifier="Gal" glycanjs:location="y6a" glycanjs:parent="y5a" transform="matrix(100 0 0 100 1341.3214 402.5)" overflow="visible"/>
			
				<use xlink:href="#neuac"  width="1" height="0.9" x="-0.5" y="-0.5" glycanjs:identifier="NeuAc" glycanjs:location="y7a" glycanjs:parent="y6a" transform="matrix(100 0 0 100 1218.5558 278.4906)" overflow="visible"/>
			
				<use xlink:href="#glcnac"  width="1" height="1" x="-0.5" y="-0.5" glycanjs:identifier="GlcNAc" glycanjs:location="y6b" glycanjs:parent="y5a" transform="matrix(100 0 0 100 1466.3214 402.5)" overflow="visible"/>
			
				<use xlink:href="#gal"  width="1" height="1" x="-0.5" y="-0.5" glycanjs:identifier="Gal" glycanjs:location="y7b" glycanjs:parent="y6b" transform="matrix(100 0 0 100 1466.3214 277.5)" overflow="visible"/>
			
				<use xlink:href="#neuac"  width="1" height="0.9" x="-0.5" y="-0.5" glycanjs:identifier="NeuAc" glycanjs:location="y8a" glycanjs:parent="y7b" transform="matrix(100 0 0 100 1343.5558 153.4906)" overflow="visible"/>
</g>
<g pointer-events="none" glycanjs:sequence="GalNAc(b1-4)GlcA(b1-3)GalNAc(b1-4)GlcA(b1-3)Gal(b1-3)Gal(b1-4)Xyl(b1-O)Ser" xmlns:glycanjs="https://glycocode.com/glycanjs">
	<g glycanjs:location="y8a">
		<line fill="none" stroke="#333333" stroke-linecap="round" x1="1633.4" y1="140" x2="1633.4" y2="265"/>
	</g>
	<g glycanjs:location="y7a">
		<line fill="none" stroke="#333333" stroke-linecap="round" x1="1633.4" y1="265" x2="1758.4" y2="390"/>
	</g>
	<g glycanjs:location="y6a">
		<line fill="none" stroke="#333333" stroke-linecap="round" x1="1758.4" y1="390" x2="1758.4" y2="515"/>
	</g>
	<g glycanjs:location="y5a">
		<line fill="none" stroke="#333333" stroke-linecap="round" x1="1758.4" y1="515" x2="1883.4" y2="640"/>
	</g>
	<g glycanjs:location="y4a">
		<line fill="none" stroke="#333333" stroke-linecap="round" x1="1883.4" y1="640" x2="2008.4" y2="765"/>
	</g>
	<g glycanjs:location="y3a">
		<line fill="none" stroke="#333333" stroke-linecap="round" x1="2008.4" y1="765" x2="2008.4" y2="890"/>
	</g>
			
				<use xlink:href="#xyl"  width="1" height="1" x="-0.5" y="-0.5" glycanjs:identifier="Xyl" glycanjs:location="y2a" glycanjs:parent="y1a" transform="matrix(100 0 0 100 2008.417 890)" overflow="visible"/>
			
				<use xlink:href="#gal"  width="1" height="1" x="-0.5" y="-0.5" glycanjs:identifier="Gal" glycanjs:location="y3a" glycanjs:parent="y2a" transform="matrix(100 0 0 100 2008.417 765)" overflow="visible"/>
			
				<use xlink:href="#gal"  width="1" height="1" x="-0.5" y="-0.5" glycanjs:identifier="Gal" glycanjs:location="y4a" glycanjs:parent="y3a" transform="matrix(100 0 0 100 1883.417 640)" overflow="visible"/>
			
				<use xlink:href="#glca"  width="1" height="1" x="-0.5" y="-0.5" glycanjs:identifier="GlcA" glycanjs:location="y5a" glycanjs:parent="y4a" transform="matrix(100 0 0 100 1758.417 515)" overflow="visible"/>
			
				<use xlink:href="#galnac"  width="1" height="1" x="-0.5" y="-0.5" glycanjs:identifier="GalNAc" glycanjs:location="y6a" glycanjs:parent="y5a" transform="matrix(100 0 0 100 1758.417 390)" overflow="visible"/>
			
				<use xlink:href="#glca"  width="1" height="1" x="-0.5" y="-0.5" glycanjs:identifier="GlcA" glycanjs:location="y7a" glycanjs:parent="y6a" transform="matrix(100 0 0 100 1633.417 265)" overflow="visible"/>
			
				<use xlink:href="#galnac"  width="1" height="1" x="-0.5" y="-0.5" glycanjs:identifier="GalNAc" glycanjs:location="y8a" glycanjs:parent="y7a" transform="matrix(100 0 0 100 1633.417 140)" overflow="visible"/>
</g>
<g>
	<path d="M561.1,1009.3h7.9l18.7,51.6H580l-5.4-15.5h-20.3l-5.6,15.5h-7.2L561.1,1009.3z M572.7,1039.8l-8-22.8l-8.3,22.8H572.7z"/>
	<path d="M597,1049.2c0.2,2.1,0.7,3.7,1.6,4.9c1.6,2,4.4,3.1,8.5,3.1c2.4,0,4.5-0.5,6.3-1.5s2.7-2.6,2.7-4.7c0-1.6-0.7-2.8-2.2-3.7
		c-0.9-0.5-2.8-1.1-5.5-1.8l-5.1-1.3c-3.3-0.8-5.7-1.7-7.2-2.7c-2.8-1.7-4.1-4.1-4.1-7.1c0-3.6,1.3-6.4,3.9-8.6
		c2.6-2.2,6.1-3.3,10.5-3.3c5.7,0,9.9,1.7,12.4,5c1.6,2.1,2.4,4.4,2.3,6.8h-6c-0.1-1.4-0.6-2.7-1.5-3.9c-1.5-1.7-4.1-2.5-7.7-2.5
		c-2.4,0-4.3,0.5-5.6,1.4s-1.9,2.1-1.9,3.6c0,1.6,0.8,2.9,2.5,3.9c1,0.6,2.4,1.1,4.2,1.5l4.3,1c4.6,1.1,7.7,2.2,9.3,3.2
		c2.5,1.6,3.7,4.2,3.7,7.6s-1.3,6.2-3.9,8.7s-6.5,3.7-11.8,3.7c-5.7,0-9.7-1.3-12-3.8c-2.4-2.5-3.6-5.7-3.8-9.4L597,1049.2
		L597,1049.2z"/>
	<path d="M629.2,1023.3h6v5.3c1.8-2.2,3.7-3.8,5.7-4.7c2-1,4.2-1.4,6.6-1.4c5.3,0,9,1.9,10.8,5.6c1,2,1.5,5,1.5,8.8v24.2h-6.4v-23.7
		c0-2.3-0.3-4.1-1-5.6c-1.1-2.3-3.2-3.5-6.1-3.5c-1.5,0-2.7,0.2-3.7,0.5c-1.7,0.5-3.3,1.5-4.6,3.1c-1.1,1.2-1.7,2.5-2.1,3.8
		s-0.5,3.2-0.5,5.7v19.7h-6.3L629.2,1023.3L629.2,1023.3z"/>
</g>
<g>
	<path d="M1078,1044.3c0.2,2.9,0.8,5.3,2,7.1c2.2,3.4,6.2,5.1,11.8,5.1c2.5,0,4.8-0.4,6.9-1.1c4-1.5,6-4.1,6-7.8
		c0-2.8-0.9-4.8-2.6-6s-4.4-2.2-8.1-3.1l-6.8-1.6c-4.4-1-7.6-2.2-9.4-3.4c-3.2-2.2-4.8-5.4-4.8-9.7c0-4.6,1.6-8.4,4.7-11.4
		s7.5-4.5,13.3-4.5c5.3,0,9.7,1.3,13.4,3.9c3.7,2.6,5.5,6.8,5.5,12.5h-6.6c-0.3-2.8-1.1-4.9-2.2-6.4c-2-2.7-5.5-4-10.4-4
		c-4,0-6.8,0.9-8.5,2.6c-1.7,1.7-2.6,3.8-2.6,6c0,2.5,1,4.4,3.1,5.6c1.3,0.8,4.4,1.7,9.1,2.8l7,1.7c3.4,0.8,6,1.9,7.8,3.3
		c3.2,2.4,4.8,5.9,4.8,10.5c0,5.7-2,9.8-6.1,12.3s-8.8,3.7-14.1,3.7c-6.3,0-11.2-1.6-14.7-4.9s-5.3-7.7-5.2-13.3h6.7V1044.3z"/>
	<path d="M1143.8,1024.4c2.5,1.3,4.4,2.9,5.7,4.9c1.3,1.9,2.1,4.1,2.5,6.6c0.4,1.7,0.6,4.5,0.6,8.3h-27.4c0.1,3.8,1,6.9,2.7,9.2
		c1.7,2.3,4.3,3.5,7.8,3.5c3.3,0,5.9-1.1,7.8-3.3c1.1-1.3,1.9-2.7,2.3-4.4h6.2c-0.2,1.4-0.7,2.9-1.6,4.6s-2,3.1-3.1,4.2
		c-1.9,1.9-4.3,3.1-7.1,3.8c-1.5,0.4-3.2,0.6-5.1,0.6c-4.7,0-8.6-1.7-11.8-5.1s-4.9-8.2-4.9-14.3c0-6,1.6-11,4.9-14.7
		c3.3-3.8,7.5-5.7,12.8-5.7C1138.8,1022.5,1141.3,1023.1,1143.8,1024.4z M1146.1,1039.1c-0.3-2.7-0.8-4.9-1.8-6.6
		c-1.7-3-4.6-4.6-8.6-4.6c-2.9,0-5.3,1-7.3,3.1s-3,4.8-3.1,8L1146.1,1039.1L1146.1,1039.1z"/>
	<path d="M1160.8,1023.3h6v6.5c0.5-1.3,1.7-2.8,3.6-4.6c1.9-1.8,4.1-2.7,6.6-2.7c0.1,0,0.3,0,0.6,0s0.8,0.1,1.4,0.1v6.7
		c-0.4-0.1-0.7-0.1-1-0.1s-0.7,0-1,0c-3.2,0-5.6,1-7.3,3.1c-1.7,2.1-2.6,4.4-2.6,7.1v21.7h-6.3L1160.8,1023.3L1160.8,1023.3z"/>
	<path d="M1216.4,1009.3h5.3l-16.4,51.6h-5.3L1216.4,1009.3z"/>
	<path d="M1281.7,1009.3v6.2h-17.4v45.5h-7.1v-45.5h-17.4v-6.2H1281.7z"/>
	<path d="M1287.3,1009.2h6.3v19.3c1.5-1.9,2.8-3.2,4-4c2-1.3,4.6-2,7.6-2c5.5,0,9.2,1.9,11.1,5.7c1.1,2.1,1.6,5,1.6,8.7v24.2h-6.5
		v-23.7c0-2.8-0.4-4.8-1.1-6.1c-1.1-2.1-3.3-3.1-6.5-3.1c-2.6,0-5,0.9-7.1,2.7s-3.2,5.2-3.2,10.2v20h-6.3L1287.3,1009.2
		L1287.3,1009.2z"/>
	<path d="M1327.5,1023.3h6v6.5c0.5-1.3,1.7-2.8,3.6-4.6s4.1-2.7,6.6-2.7c0.1,0,0.3,0,0.6,0s0.8,0.1,1.4,0.1v6.7
		c-0.4-0.1-0.7-0.1-1-0.1s-0.7,0-1,0c-3.2,0-5.6,1-7.3,3.1s-2.6,4.4-2.6,7.1v21.7h-6.3L1327.5,1023.3L1327.5,1023.3z"/>
</g>
<g>
	<path d="M1968.5,1044.3c0.2,2.9,0.8,5.3,2,7.1c2.2,3.4,6.2,5.1,11.8,5.1c2.5,0,4.8-0.4,6.9-1.1c4-1.5,6-4.1,6-7.8
		c0-2.8-0.9-4.8-2.6-6s-4.4-2.2-8.1-3.1l-6.8-1.6c-4.4-1-7.6-2.2-9.4-3.4c-3.2-2.2-4.8-5.4-4.8-9.7c0-4.6,1.6-8.4,4.7-11.4
		s7.5-4.5,13.3-4.5c5.3,0,9.7,1.3,13.4,3.9c3.7,2.6,5.5,6.8,5.5,12.5h-6.6c-0.3-2.8-1.1-4.9-2.2-6.4c-2-2.7-5.5-4-10.4-4
		c-4,0-6.8,0.9-8.5,2.6c-1.7,1.7-2.6,3.8-2.6,6c0,2.5,1,4.4,3.1,5.6c1.3,0.8,4.4,1.7,9.1,2.8l7,1.7c3.4,0.8,6,1.9,7.8,3.3
		c3.2,2.4,4.8,5.9,4.8,10.5c0,5.7-2,9.8-6.1,12.3s-8.8,3.7-14.1,3.7c-6.3,0-11.2-1.6-14.7-4.9s-5.3-7.7-5.2-13.3h6.7V1044.3z"/>
	<path d="M2034.3,1024.4c2.5,1.3,4.4,2.9,5.7,4.9c1.3,1.9,2.1,4.1,2.5,6.6c0.4,1.7,0.6,4.5,0.6,8.3h-27.4c0.1,3.8,1,6.9,2.7,9.2
		c1.7,2.3,4.3,3.5,7.8,3.5c3.3,0,5.9-1.1,7.8-3.3c1.1-1.3,1.9-2.7,2.3-4.4h6.2c-0.2,1.4-0.7,2.9-1.6,4.6s-2,3.1-3.1,4.2
		c-1.9,1.9-4.3,3.1-7.1,3.8c-1.5,0.4-3.2,0.6-5.1,0.6c-4.7,0-8.6-1.7-11.8-5.1c-3.2-3.4-4.9-8.2-4.9-14.3c0-6,1.6-11,4.9-14.7
		s7.5-5.7,12.8-5.7C2029.3,1022.5,2031.8,1023.1,2034.3,1024.4z M2036.6,1039.1c-0.3-2.7-0.8-4.9-1.8-6.6c-1.7-3-4.6-4.6-8.6-4.6
		c-2.9,0-5.3,1-7.3,3.1s-3,4.8-3.1,8L2036.6,1039.1L2036.6,1039.1z"/>
	<path d="M2051.3,1023.3h6v6.5c0.5-1.3,1.7-2.8,3.6-4.6s4.1-2.7,6.6-2.7c0.1,0,0.3,0,0.6,0s0.8,0.1,1.4,0.1v6.7
		c-0.4-0.1-0.7-0.1-1-0.1s-0.7,0-1,0c-3.2,0-5.6,1-7.3,3.1s-2.6,4.4-2.6,7.1v21.7h-6.3V1023.3z"/>
</g>
<g>
	<path d="M2306,1044.3c0.2,2.9,0.8,5.3,2,7.1c2.2,3.4,6.2,5.1,11.8,5.1c2.5,0,4.8-0.4,6.9-1.1c4-1.5,6-4.1,6-7.8
		c0-2.8-0.9-4.8-2.6-6c-1.7-1.2-4.4-2.2-8.1-3.1l-6.8-1.6c-4.4-1-7.6-2.2-9.4-3.4c-3.2-2.2-4.8-5.4-4.8-9.7c0-4.6,1.6-8.4,4.7-11.4
		c3.1-3,7.5-4.5,13.3-4.5c5.3,0,9.7,1.3,13.4,3.9s5.5,6.8,5.5,12.5h-6.6c-0.3-2.8-1.1-4.9-2.2-6.4c-2-2.7-5.5-4-10.4-4
		c-4,0-6.8,0.9-8.5,2.6s-2.6,3.8-2.6,6c0,2.5,1,4.4,3.1,5.6c1.3,0.8,4.4,1.7,9.1,2.8l7,1.7c3.4,0.8,6,1.9,7.8,3.3
		c3.2,2.4,4.8,5.9,4.8,10.5c0,5.7-2,9.8-6.1,12.3s-8.8,3.7-14.1,3.7c-6.3,0-11.2-1.6-14.7-4.9s-5.3-7.7-5.2-13.3h6.7V1044.3z"/>
	<path d="M2371.8,1024.4c2.5,1.3,4.4,2.9,5.7,4.9c1.3,1.9,2.1,4.1,2.5,6.6c0.4,1.7,0.6,4.5,0.6,8.3h-27.4c0.1,3.8,1,6.9,2.7,9.2
		c1.7,2.3,4.3,3.5,7.8,3.5c3.3,0,5.9-1.1,7.8-3.3c1.1-1.3,1.9-2.7,2.3-4.4h6.2c-0.2,1.4-0.7,2.9-1.6,4.6c-0.9,1.7-2,3.1-3.1,4.2
		c-1.9,1.9-4.3,3.1-7.1,3.8c-1.5,0.4-3.2,0.6-5.1,0.6c-4.7,0-8.6-1.7-11.8-5.1s-4.9-8.2-4.9-14.3c0-6,1.6-11,4.9-14.7
		c3.3-3.8,7.5-5.7,12.8-5.7C2366.8,1022.5,2369.3,1023.1,2371.8,1024.4z M2374.1,1039.1c-0.3-2.7-0.8-4.9-1.8-6.6
		c-1.7-3-4.6-4.6-8.6-4.6c-2.9,0-5.3,1-7.3,3.1s-3,4.8-3.1,8L2374.1,1039.1L2374.1,1039.1z"/>
	<path d="M2388.8,1023.3h6v6.5c0.5-1.3,1.7-2.8,3.6-4.6c1.9-1.8,4.1-2.7,6.6-2.7c0.1,0,0.3,0,0.6,0s0.8,0.1,1.4,0.1v6.7
		c-0.4-0.1-0.7-0.1-1-0.1s-0.7,0-1,0c-3.2,0-5.6,1-7.3,3.1s-2.6,4.4-2.6,7.1v21.7h-6.3V1023.3z"/>
</g>
</svg>
